<svg width="154" height="51" viewBox="0 0 154 51" fill="none" xmlns="http://www.w3.org/2000/svg">
<rect x="54.5" y="0.5" width="99" height="50" rx="25" stroke="white"/>
<rect x="36" y="9" width="34" height="34" fill="#FF2B48"/>
<path d="M1 25.5C0.723858 25.5 0.5 25.7239 0.5 26C0.5 26.2761 0.723858 26.5 1 26.5L1 25.5ZM111.354 26.3536C111.549 26.1583 111.549 25.8417 111.354 25.6465L108.172 22.4645C107.976 22.2692 107.66 22.2692 107.464 22.4645C107.269 22.6597 107.269 22.9763 107.464 23.1716L110.293 26L107.464 28.8284C107.269 29.0237 107.269 29.3403 107.464 29.5355C107.66 29.7308 107.976 29.7308 108.172 29.5355L111.354 26.3536ZM1 26.5L111 26.5L111 25.5L1 25.5L1 26.5Z" fill="white"/>
</svg>
