<svg width="1440" height="681" viewBox="0 0 1440 681" fill="none" xmlns="http://www.w3.org/2000/svg">
<path d="M1220.17 405.181C1301.72 410.346 1397.27 457.584 1445.75 486.944C1454.11 492.008 1459 501.162 1459 510.936V652C1459 668.016 1446.02 681 1430 681H-13C-29.0163 681 -42 668.016 -42 652V610.597C-42 604.476 -40.1414 598.534 -36.3624 593.72C56.5156 475.393 309.52 360.345 328.11 332.48C343.294 309.719 406.138 214.985 435.663 170.463C718.781 -201.766 972.638 148.335 986.873 170.463C1001.11 192.591 1107.87 398.068 1220.17 405.181Z" fill="black"/>
</svg>
